<svg xmlns="http://www.w3.org/2000/svg" xml:space="preserve" width="960" height="1030" version="1.0"><switch><g><g fill="#FFF"><path d="m41.271 960.792 46.803-24.129-1.248 7.593-37.962 19.864 31.722 19.865-1.248 7.592-39.105-24.129 1.038-6.656zM90.359 990.537l12.377-78.419h12.48c8.944 0 20.281.832 17.057 21.009-2.496 15.913-9.881 23.297-26.001 22.673l-5.513 34.737h-10.4zm21.426-69.578-4.16 26.001c8.84.624 12.168-4.265 13.52-13.001 1.145-7.072 0-13-7.904-13h-1.456zM145.999 944.464h.208c3.016-4.576 6.864-7.28 12.272-7.28l-1.456 9.672-1.664-.104c-7.28 0-10.192 4.056-11.336 10.712l-5.201 33.073h-9.88l8.32-52.521h9.776l-1.039 6.448zM159.517 964.433c1.769-11.44 5.824-27.249 20.801-27.249s14.041 15.809 12.273 27.249c-1.769 11.024-5.824 26.937-20.801 26.937s-14.041-15.913-12.273-26.937zm23.09 0c.623-4.16 3.848-18.305-3.641-18.305s-8.84 14.145-9.465 18.305c-.623 3.744-3.848 17.992 3.641 17.992s8.84-14.248 9.465-17.992zM226.495 990.953c-2.912 18.721-9.048 21.945-19.448 21.945-9.465 0-14.665-5.408-13.105-15.185l.209-1.456h9.464c-.728 3.744.104 7.904 4.992 7.904 6.552 0 6.968-6.345 7.696-11.129l1.456-8.736h-.208c-2.08 4.265-5.824 7.28-10.504 7.072-12.48 0-9.984-17.784-8.633-26.729 1.352-8.425 4.16-27.457 16.953-27.457 5.199 0 7.072 2.912 8.424 7.072l.313-.208.936-6.032h9.881l-8.426 52.939zm-8.945-45.033c-6.76 0-8.424 14.353-9.049 18.097-.623 3.952-3.535 18.616 3.537 18.616s8.216-13.832 8.943-18.097c.626-4.264 2.913-18.616-3.431-18.616zM252.701 944.464h.208c3.017-4.576 6.864-7.28 12.272-7.28l-1.456 9.672-1.664-.104c-7.28 0-10.192 4.056-11.337 10.712l-5.199 33.073h-9.881l8.32-52.521h9.776l-1.039 6.448zM285.357 983.777h-.208c-2.704 4.576-5.2 7.592-10.816 7.592-12.169 0-9.36-19.24-8.009-27.769 1.353-8.736 4.473-26.417 16.85-26.417 4.576 0 7.176 2.808 8.32 6.656h.207l.937-5.824h9.776l-8.32 52.521h-9.776l1.039-6.759zm3.432-19.552c.625-4.16 3.328-18.305-3.224-18.305-7.28 0-8.632 14.04-9.36 18.305-.729 4.368-3.744 18.408 3.536 18.408 6.551 0 8.424-14.248 9.048-18.408zM320.196 944.464h.208c2.704-4.368 6.448-7.28 11.44-7.28 4.681 0 8.009 2.704 8.32 7.28h.208c2.809-4.576 6.656-7.28 11.961-7.28 9.256 0 10.712 5.72 9.568 12.688l-6.449 40.665h-9.775l5.824-36.817c.623-3.848.728-7.8-4.057-7.8-6.969 0-7.28 6.552-8.008 11.232l-5.305 33.385h-9.776l5.616-35.673c.624-4.16 1.456-8.944-4.16-8.944-6.137 0-6.76 6.76-7.696 11.232l-5.304 33.385h-9.777l8.32-52.521h9.881l-1.039 6.448zM386.236 983.777h-.209c-2.703 4.576-5.199 7.592-10.816 7.592-12.168 0-9.359-19.24-8.008-27.769 1.352-8.736 4.473-26.417 16.849-26.417 4.576 0 7.177 2.808 8.32 6.656h.208l.936-5.824h9.777l-8.32 52.521h-9.777l1.04-6.759zm3.431-19.552c.624-4.16 3.328-18.305-3.225-18.305-7.279 0-8.632 14.04-9.359 18.305-.729 4.368-3.744 18.408 3.535 18.408 6.553 0 8.425-14.248 9.049-18.408zM425.753 983.777h-.207c-2.705 4.576-5.305 7.592-10.816 7.592-12.169 0-9.361-19.24-8.009-27.769 1.353-8.736 4.472-26.417 16.849-26.417 4.992 0 6.969 2.704 8.32 6.656h.208l6.24-39.626h9.776l-13.625 86.323h-9.775l1.039-6.759zm3.433-19.552c.624-4.16 3.328-18.305-3.224-18.305-7.281 0-8.633 14.04-9.361 18.305-.728 4.368-3.744 18.408 3.537 18.408 6.552 0 8.424-14.248 9.048-18.408zM446.136 964.433c1.769-11.44 5.824-27.249 20.801-27.249s14.041 15.809 12.273 27.249c-1.769 11.024-5.824 26.937-20.801 26.937s-14.04-15.913-12.273-26.937zm23.09 0c.623-4.16 3.848-18.305-3.641-18.305s-8.84 14.145-9.465 18.305c-.623 3.744-3.848 17.992 3.641 17.992s8.84-14.248 9.465-17.992zM499.593 944.464h.208c3.017-4.576 6.864-7.28 12.272-7.28l-1.456 9.672-1.664-.104c-7.28 0-10.192 4.056-11.337 10.712l-5.199 33.073h-9.881l8.32-52.521h9.776l-1.039 6.448zM542.647 938.016l2.704-16.953c1.352-8.944 3.536-17.681 14.664-17.681 2.496 0 4.265.521 6.345 1.456l-1.664 10.192c-1.248-.728-2.288-1.248-3.849-1.248-4.992 0-5.408 4.889-5.928 8.425l-2.496 15.809h8.112l-1.248 7.696h-8.112l-7.072 44.825h-9.776l7.072-44.825h-4.888l1.248-7.696h4.888zM574.783 944.464h.208c3.017-4.576 6.864-7.28 12.272-7.28l-1.456 9.672-1.664-.104c-7.28 0-10.192 4.056-11.337 10.712l-5.199 33.073h-9.881l8.32-52.521h9.776l-1.039 6.448zM588.302 964.433c1.768-11.44 5.824-27.249 20.801-27.249s14.04 15.809 12.271 27.249c-1.768 11.024-5.824 26.937-20.801 26.937s-14.039-15.913-12.271-26.937zm23.088 0c.625-4.16 3.849-18.305-3.64-18.305s-8.841 14.145-9.464 18.305c-.625 3.744-3.849 17.992 3.64 17.992s8.841-14.248 9.464-17.992zM641.863 944.048h.207c1.457-2.185 3.121-3.849 4.889-4.992 1.977-1.248 4.16-1.872 6.76-1.872 10.4 0 9.257 9.256 8.009 17.265l-5.72 36.089h-9.777l5.721-36.297c.624-3.641.729-8.32-4.473-8.32-6.447 0-7.072 7.384-7.8 11.856l-5.2 32.761h-9.776l8.32-52.521h9.776l-.936 6.031zM687.517 923.143l-2.393 14.873h5.201l-1.248 7.696h-5.201l-7.072 44.825h-9.775l7.072-44.825h-5.305l1.248-7.696h5.305l2.392-14.873h9.776zM731.507 959.648l-1.248 7.904h-18.514l1.248-7.904h18.514zM768.112 966.2c-.728 4.368-2.808 16.433 3.536 16.433 5.2 0 7.072-5.72 7.696-9.776h9.048c-1.56 9.673-7.176 18.513-18.2 18.513-14.665 0-13.624-15.601-11.856-26.729 1.768-10.713 5.616-27.457 20.072-27.457 14.249 0 13.313 16.641 11.545 27.457l-.208 1.56h-21.633zm12.792-6.968c.625-4.057 2.08-13.313-3.848-13.313-6.137 0-7.176 9.256-7.801 13.313h11.649zM810.542 944.048h.209c1.455-2.185 3.119-3.849 4.888-4.992 1.976-1.248 4.16-1.872 6.761-1.872 10.4 0 9.256 9.256 8.008 17.265l-5.721 36.089h-9.775l5.72-36.297c.624-3.641.728-8.32-4.472-8.32-6.449 0-7.072 7.384-7.801 11.856l-5.2 32.761h-9.776l8.32-52.521h9.776l-.937 6.031zM855.47 983.777h-.209c-2.703 4.576-5.304 7.592-10.816 7.592-12.168 0-9.359-19.24-8.008-27.769 1.352-8.736 4.473-26.417 16.849-26.417 4.992 0 6.968 2.704 8.32 6.656h.208l6.24-39.626h9.776l-13.624 86.323h-9.777l1.041-6.759zm3.432-19.552c.624-4.16 3.328-18.305-3.225-18.305-7.279 0-8.632 14.04-9.359 18.305-.729 4.368-3.744 18.408 3.535 18.408 6.553 0 8.425-14.248 9.049-18.408zM919.846 967.448l-46.802 24.129 1.248-7.592 37.961-19.865-31.721-19.864 1.248-7.593 39.105 24.129-1.039 6.656z"/></g><g fill="#FFF"><path d="M41.587 770.788h49.245v9.823H52.167v28.212h37.531v9.824H52.167v37.28h38.665v9.823H41.587v-94.962zM108.841 770.788h17.885c14.231 0 25.818 1.889 37.027 11.461 10.832 9.32 15.743 22.04 15.743 36.146 0 13.854-5.038 26.071-15.491 35.391-11.335 10.076-22.67 11.965-37.531 11.965h-17.633v-94.963zm18.262 85.14c11.588 0 21.285-1.638 29.976-9.824 7.809-7.305 11.839-17.255 11.839-27.834 0-10.831-4.156-21.285-12.343-28.464-8.69-7.683-18.263-9.194-29.472-9.194h-7.683v75.316h7.683zM237.304 789.302c-3.778-6.549-8.313-10.327-16.373-10.327-8.438 0-15.743 6.045-15.743 14.735 0 8.187 8.438 11.965 14.861 14.861l6.298 2.771c12.342 5.415 22.796 11.587 22.796 26.7 0 16.625-13.351 29.346-29.849 29.346-15.24 0-26.575-9.824-29.598-24.56l10.327-2.896c1.386 9.697 8.816 17.632 19.019 17.632 10.201 0 19.521-7.809 19.521-18.514 0-11.083-8.69-14.861-17.507-18.892l-5.794-2.52c-11.083-5.038-20.654-10.705-20.654-24.308 0-14.735 12.469-24.182 26.574-24.182 10.579 0 19.521 5.416 24.56 14.736l-8.438 5.418zM307.706 789.302c-3.778-6.549-8.313-10.327-16.373-10.327-8.438 0-15.743 6.045-15.743 14.735 0 8.187 8.438 11.965 14.861 14.861l6.298 2.771c12.343 5.415 22.796 11.587 22.796 26.7 0 16.625-13.35 29.346-29.849 29.346-15.239 0-26.575-9.824-29.598-24.56l10.327-2.896c1.386 9.697 8.816 17.632 19.019 17.632 10.201 0 19.521-7.809 19.521-18.514 0-11.083-8.69-14.861-17.507-18.892l-5.793-2.52c-11.084-5.038-20.655-10.705-20.655-24.308 0-14.735 12.469-24.182 26.574-24.182 10.579 0 19.521 5.416 24.56 14.736l-8.438 5.418zM429.242 818.396c0 27.33-22.419 48.993-49.497 48.993-27.079 0-49.497-21.663-49.497-48.993 0-27.204 22.418-49.245 49.497-49.245 27.078-.001 49.497 22.04 49.497 49.245zm-88.414-.126c0 21.411 17.38 39.295 38.917 39.295 21.536 0 38.917-17.884 38.917-39.295 0-21.537-17.129-39.295-38.917-39.295-21.789 0-38.917 17.757-38.917 39.295zM444.227 766.758l74.056 77.583v-73.553h10.58v99.245l-74.057-77.457v73.175h-10.579v-98.993zM617.149 843.207l27.078-72.419h11.461l-38.539 100.631-38.54-100.631h11.461l27.079 72.419zM666.013 770.788h49.245v9.823h-38.665v28.212h37.531v9.824h-37.531v37.28h38.665v9.823h-49.245v-94.962zM821.555 818.018c.252 12.847-1.134 23.426-9.823 33.502-8.69 10.075-21.915 15.869-35.139 15.869-26.701 0-48.867-22.167-48.867-48.867 0-27.204 22.166-49.371 49.496-49.371 16.625 0 30.102 7.431 40.177 20.529l-7.683 7.179c-7.935-11.209-18.64-17.884-32.62-17.884-21.663 0-38.791 18.262-38.791 39.673 0 10.075 4.03 19.647 11.083 26.826 6.928 6.928 17.003 12.091 26.953 12.091 16.498 0 33.879-12.091 33.879-29.723h-28.212v-9.824h39.547zM850.772 838.799l-11.461 26.952h-11.587l43.829-99.497 42.696 99.497h-11.713l-11.21-26.952h-40.554zm20.529-47.86-16.247 38.035h32.116l-15.869-38.035z"/></g><path fill="#161616" d="M80 53h793v528H80z"/><path fill="#9B9B9B" d="M896.107 23.393H59.866c-11.457 0-20.753 9.282-20.753 20.753v577.06c0 11.47 9.296 20.753 20.753 20.753h314.439v49.686c0 .747.163 1.44.218 2.134h-45.134c-10.451 0-18.999 8.548-18.999 18.999 0 10.519 8.548 19.013 18.999 19.013H636.98c10.464 0 19.013-8.494 19.013-19.013 0-10.451-8.548-18.999-19.013-18.999h-45.175c.109-.693.272-1.386.272-2.134v-49.686h304.07c11.47 0 20.766-9.283 20.766-20.753V44.145c-.054-11.47-9.35-20.752-20.806-20.752zm-38.013 507.354c0 11.456-9.296 20.752-20.712 20.752H118.589c-11.471 0-20.712-9.296-20.712-20.752V93.192c0-11.457 9.241-20.753 20.712-20.753h718.793c11.416 0 20.712 9.296 20.712 20.753v437.555zm0 0"/><g fill="#FFF"><path d="m409.276 132.932 55.761 153.207h.953l54.331-153.207h74.348L495.062 411.48h-58.144L333.022 132.932h76.254zM620.757 133l-23.859 66H661v293h72V199h56v-66z"/><path d="M238 345h65v-68h-65v-78h94.822l-24.887-66H168v359h297.461l24.473-67H238z"/></g></g></switch></svg>