<?xml version="1.0" standalone="no"?><svg xmlns="http://www.w3.org/2000/svg" viewBox="0 0 1440 320"><path fill="#84a7a1" fill-opacity="1" d="M0,64L26.7,96C53.3,128,107,192,160,192C213.3,192,267,128,320,122.7C373.3,117,427,171,480,202.7C533.3,235,587,245,640,250.7C693.3,256,747,256,800,266.7C853.3,277,907,299,960,277.3C1013.3,256,1067,192,1120,186.7C1173.3,181,1227,235,1280,261.3C1333.3,288,1387,288,1413,288L1440,288L1440,320L1413.3,320C1386.7,320,1333,320,1280,320C1226.7,320,1173,320,1120,320C1066.7,320,1013,320,960,320C906.7,320,853,320,800,320C746.7,320,693,320,640,320C586.7,320,533,320,480,320C426.7,320,373,320,320,320C266.7,320,213,320,160,320C106.7,320,53,320,27,320L0,320Z"></path></svg>